<mxfile host="app.diagrams.net" modified="2023-05-01T08:43:27.543Z" agent="Mozilla/5.0 (Macintosh; Intel Mac OS X 10_15_7) AppleWebKit/537.36 (KHTML, like Gecko) Chrome/112.0.0.0 Safari/537.36" etag="R4sqgU9X3a42a3SOTCeJ" version="21.2.3" type="github">
  <diagram name="Page-1" id="2YBvvXClWsGukQMizWep">
    <mxGraphModel dx="2071" dy="644" grid="1" gridSize="10" guides="1" tooltips="1" connect="1" arrows="1" fold="1" page="1" pageScale="1" pageWidth="850" pageHeight="1100" math="0" shadow="0">
      <root>
        <mxCell id="0" />
        <mxCell id="1" parent="0" />
        <mxCell id="xAUuOv2I10lEDELEDJxS-1" value="executer: executerFacade" style="shape=umlLifeline;perimeter=lifelinePerimeter;whiteSpace=wrap;html=1;container=0;dropTarget=0;collapsible=0;recursiveResize=0;outlineConnect=0;portConstraint=eastwest;newEdgeStyle={&quot;edgeStyle&quot;:&quot;elbowEdgeStyle&quot;,&quot;elbow&quot;:&quot;vertical&quot;,&quot;curved&quot;:0,&quot;rounded&quot;:0};strokeWidth=2;" vertex="1" parent="1">
          <mxGeometry y="40" width="100" height="570" as="geometry" />
        </mxCell>
        <mxCell id="xAUuOv2I10lEDELEDJxS-2" value="" style="html=1;points=[];perimeter=orthogonalPerimeter;outlineConnect=0;targetShapes=umlLifeline;portConstraint=eastwest;newEdgeStyle={&quot;edgeStyle&quot;:&quot;elbowEdgeStyle&quot;,&quot;elbow&quot;:&quot;vertical&quot;,&quot;curved&quot;:0,&quot;rounded&quot;:0};strokeWidth=2;" vertex="1" parent="xAUuOv2I10lEDELEDJxS-1">
          <mxGeometry x="45" y="70" width="10" height="360" as="geometry" />
        </mxCell>
        <mxCell id="xAUuOv2I10lEDELEDJxS-3" value="removeItemFromShipment(item,amount)" style="html=1;verticalAlign=bottom;startArrow=oval;endArrow=block;startSize=8;edgeStyle=elbowEdgeStyle;elbow=vertical;curved=0;rounded=0;strokeWidth=2;" edge="1" parent="xAUuOv2I10lEDELEDJxS-1" target="xAUuOv2I10lEDELEDJxS-2">
          <mxGeometry x="0.1282" relative="1" as="geometry">
            <mxPoint x="-150" y="70" as="sourcePoint" />
            <mxPoint as="offset" />
          </mxGeometry>
        </mxCell>
        <mxCell id="xAUuOv2I10lEDELEDJxS-9" value="if shipment not found&amp;nbsp;" style="html=1;whiteSpace=wrap;strokeWidth=2;fillColor=#fff2cc;strokeColor=#d6b656;" vertex="1" parent="1">
          <mxGeometry x="-30" y="1310" width="140" height="30" as="geometry" />
        </mxCell>
        <mxCell id="xAUuOv2I10lEDELEDJxS-11" value="ShippingTruckDAO" style="shape=umlLifeline;perimeter=lifelinePerimeter;whiteSpace=wrap;html=1;container=0;dropTarget=0;collapsible=0;recursiveResize=0;outlineConnect=0;portConstraint=eastwest;newEdgeStyle={&quot;edgeStyle&quot;:&quot;elbowEdgeStyle&quot;,&quot;elbow&quot;:&quot;vertical&quot;,&quot;curved&quot;:0,&quot;rounded&quot;:0};strokeWidth=2;" vertex="1" parent="1">
          <mxGeometry x="550" y="40" width="100" height="570" as="geometry" />
        </mxCell>
        <mxCell id="xAUuOv2I10lEDELEDJxS-12" value="" style="html=1;points=[];perimeter=orthogonalPerimeter;outlineConnect=0;targetShapes=umlLifeline;portConstraint=eastwest;newEdgeStyle={&quot;edgeStyle&quot;:&quot;elbowEdgeStyle&quot;,&quot;elbow&quot;:&quot;vertical&quot;,&quot;curved&quot;:0,&quot;rounded&quot;:0};strokeWidth=2;" vertex="1" parent="xAUuOv2I10lEDELEDJxS-11">
          <mxGeometry x="45" y="70" width="10" height="360" as="geometry" />
        </mxCell>
        <mxCell id="xAUuOv2I10lEDELEDJxS-14" value="GetShipmentType()" style="html=1;verticalAlign=bottom;endArrow=block;edgeStyle=elbowEdgeStyle;elbow=vertical;curved=0;rounded=0;strokeWidth=2;" edge="1" parent="1" target="xAUuOv2I10lEDELEDJxS-16">
          <mxGeometry relative="1" as="geometry">
            <mxPoint x="55" y="120" as="sourcePoint" />
            <Array as="points">
              <mxPoint x="180" y="120" />
            </Array>
            <mxPoint x="285" y="120" as="targetPoint" />
          </mxGeometry>
        </mxCell>
        <mxCell id="xAUuOv2I10lEDELEDJxS-15" value=":Shipment" style="shape=umlLifeline;perimeter=lifelinePerimeter;whiteSpace=wrap;html=1;container=0;dropTarget=0;collapsible=0;recursiveResize=0;outlineConnect=0;portConstraint=eastwest;newEdgeStyle={&quot;edgeStyle&quot;:&quot;elbowEdgeStyle&quot;,&quot;elbow&quot;:&quot;vertical&quot;,&quot;curved&quot;:0,&quot;rounded&quot;:0};strokeWidth=2;" vertex="1" parent="1">
          <mxGeometry x="270" y="40" width="100" height="570" as="geometry" />
        </mxCell>
        <mxCell id="xAUuOv2I10lEDELEDJxS-16" value="" style="html=1;points=[];perimeter=orthogonalPerimeter;outlineConnect=0;targetShapes=umlLifeline;portConstraint=eastwest;newEdgeStyle={&quot;edgeStyle&quot;:&quot;elbowEdgeStyle&quot;,&quot;elbow&quot;:&quot;vertical&quot;,&quot;curved&quot;:0,&quot;rounded&quot;:0};strokeWidth=2;" vertex="1" parent="xAUuOv2I10lEDELEDJxS-15">
          <mxGeometry x="45" y="70" width="10" height="360" as="geometry" />
        </mxCell>
        <mxCell id="xAUuOv2I10lEDELEDJxS-17" value="GetAllTrucksByType(type)" style="html=1;verticalAlign=bottom;endArrow=block;edgeStyle=elbowEdgeStyle;elbow=vertical;curved=0;rounded=0;strokeWidth=2;" edge="1" parent="1" source="xAUuOv2I10lEDELEDJxS-1">
          <mxGeometry x="-0.5185" relative="1" as="geometry">
            <mxPoint x="330" y="200" as="sourcePoint" />
            <Array as="points">
              <mxPoint x="455" y="200" />
            </Array>
            <mxPoint x="590" y="200" as="targetPoint" />
            <mxPoint as="offset" />
          </mxGeometry>
        </mxCell>
        <mxCell id="xAUuOv2I10lEDELEDJxS-18" value="type" style="html=1;verticalAlign=bottom;endArrow=open;dashed=1;endSize=8;edgeStyle=elbowEdgeStyle;elbow=vertical;curved=0;rounded=0;strokeWidth=2;" edge="1" parent="1" target="xAUuOv2I10lEDELEDJxS-1">
          <mxGeometry relative="1" as="geometry">
            <mxPoint x="80" y="160" as="targetPoint" />
            <Array as="points">
              <mxPoint x="115" y="160" />
              <mxPoint x="155" y="170" />
              <mxPoint x="215" y="280" />
            </Array>
            <mxPoint x="310" y="160" as="sourcePoint" />
          </mxGeometry>
        </mxCell>
        <mxCell id="xAUuOv2I10lEDELEDJxS-19" value="trucks" style="html=1;verticalAlign=bottom;endArrow=open;dashed=1;endSize=8;edgeStyle=elbowEdgeStyle;elbow=vertical;curved=0;rounded=0;strokeWidth=2;" edge="1" parent="1" source="xAUuOv2I10lEDELEDJxS-11">
          <mxGeometry x="-0.4936" relative="1" as="geometry">
            <mxPoint x="50" y="240" as="targetPoint" />
            <Array as="points">
              <mxPoint x="115" y="240" />
              <mxPoint x="155" y="250" />
              <mxPoint x="215" y="360" />
            </Array>
            <mxPoint x="310" y="240" as="sourcePoint" />
            <mxPoint as="offset" />
          </mxGeometry>
        </mxCell>
      </root>
    </mxGraphModel>
  </diagram>
</mxfile>
